<?xml version="1.0" standalone="no"?><!DOCTYPE svg PUBLIC "-//W3C//DTD SVG 1.1//EN" "http://www.w3.org/Graphics/SVG/1.1/DTD/svg11.dtd"><svg t="1735751288510" class="icon" viewBox="0 0 1024 1024" version="1.1" xmlns="http://www.w3.org/2000/svg" p-id="10460" xmlns:xlink="http://www.w3.org/1999/xlink" width="200" height="200"><path d="M124.3 503.1c-4.1 19.9-6.3 40.5-6.3 61.5 0 191.5 177.5 346.7 396.5 346.7S911 756.1 911 564.6c0-21-2.1-41.5-6.3-61.5H124.3z" fill="#E9B59B" p-id="10461"></path><path d="M244 548.3c2.2-13.8 5.6-27.5 9.7-40.6l-139.1-17.6c-4.1 13.1-7.4 26.8-9.7 40.6-29.5 178.9 112.4 345 317.1 370.9 23.8 3 47.4 4 70.6 3.1C325.7 854.6 217.8 706.5 244 548.3z" fill="#D38B6C" p-id="10462"></path><path d="M778.6 547.7c-2-13.9-5.1-27.6-9-40.7l139.5-16.6c3.9 13.2 7 26.8 9 40.7 26.3 179.4-118.8 344.6-324 368.9-23.8 2.8-47.4 3.6-70.6 2.6 167.8-49 278.4-196.4 255.1-354.9z" fill="#FFD7BD" p-id="10463"></path><path d="M190.8 338.7c-29.3 19.9-46.8 52.8-46.8 88.2 0 7.7 0.8 15.1 2.3 22.3h730.8c-5.1-18.4-16-34.8-31.6-47-21.5-16.8-29-45.9-18.3-70.9 4.1-9.7 6.2-20 6.2-30.7 0-43.2-35.2-78.4-78.4-78.4-4.1 0-8.2 0.4-12.3 1-3.1 0.5-6.2 0.7-9.3 0.7-22.7 0-43.9-13-54-33.9-5-10.3-12.7-18.9-22.3-25.1-9.9-6.3-21.2-9.6-33-9.6-6.1 0-12.1 0.8-17.9 2.6-5.8 1.7-11.6 2.6-17.5 2.6-11.9 0-23.7-3.5-33.7-10.3-26.4-17.9-57.4-27.4-89.5-27.4-27.4 0-54.4 7-78.1 20.3-23 13-42.7 31.6-56.9 53.9-11 17.3-30.1 27.8-50.6 27.8H278.2c-33.7 0.1-61.1 27.6-61.1 61.3v1.5c0.5 20.4-9.4 39.6-26.3 51.1z" fill="#FFE8DA" p-id="10464"></path><path d="M845.5 402.2c-21.5-16.8-29-45.9-18.3-70.9 4.1-9.7 6.2-20 6.2-30.7 0-43.2-35.2-78.4-78.4-78.4-4.1 0-8.2 0.4-12.3 1-3.1 0.5-6.2 0.7-9.3 0.7-22.7 0-43.9-13-54-33.9-5-10.3-12.7-18.9-22.3-25.1-9.9-6.3-21.2-9.6-33-9.6-6.1 0-12.1 0.8-17.9 2.6-5.8 1.7-11.6 2.6-17.5 2.6-11.9 0-23.7-3.5-33.7-10.3-26.4-17.9-57.4-27.4-89.5-27.4-13.6 0-27 1.7-40 5.1 17.6 4.5 34.3 12 49.5 22.3 10 6.8 21.8 10.3 33.7 10.3 5.9 0 11.7-0.9 17.5-2.6 5.8-1.8 11.8-2.6 17.9-2.6 11.8 0 23.1 3.3 33 9.6 9.6 6.2 17.3 14.8 22.3 25.1 10.1 20.9 31.3 33.9 54 33.9 3.1 0 6.2-0.2 9.3-0.7 4.1-0.6 8.2-1 12.3-1 43.2 0 78.4 35.2 78.4 78.4 0 10.7-2.1 21-6.2 30.7-10.7 25-3.2 54.1 18.3 70.9 15.6 12.2 26.5 28.6 31.6 47h80c-5.1-18.4-16-34.8-31.6-47z" fill="#FFFFFF" p-id="10465"></path><path d="M270.8 338.7c16.9-11.5 26.8-30.7 26.3-51.1v-1.5c0-33.7 27.4-61.2 61.1-61.3h1.7c20.5 0 39.6-10.5 50.6-27.8 14.2-22.3 33.9-40.9 56.9-53.9 12-6.7 24.8-11.8 38.1-15.2-13-3.3-26.4-5.1-40-5.1-27.4 0-54.4 7-78.1 20.3-23 13-42.7 31.6-56.9 53.9-11 17.3-30.1 27.8-50.6 27.8H278.2c-33.7 0.1-61.1 27.6-61.1 61.3v1.5c0.5 20.4-9.4 39.6-26.3 51.1-29.3 19.9-46.8 52.8-46.8 88.2 0 7.7 0.8 15.1 2.3 22.3h80c-1.5-7.2-2.3-14.6-2.3-22.3 0-35.4 17.5-68.3 46.8-88.2z" fill="#FFD7BD" p-id="10466"></path><path d="M939.7 464c-2.8-44.3-24.7-83.5-57.7-109.2 7.1-16.7 11.1-35 11.1-54.3 0-76.4-62-138.4-138.4-138.4-7.4 0-14.6 0.6-21.7 1.7-19.6-40.6-61.2-68.5-109.3-68.5-12.3 0-24.2 1.8-35.4 5.2-35.1-23.8-77.5-37.7-123.2-37.7-78 0-146.6 40.7-185.6 102h-1.4c-67 0-121.3 54.3-121.3 121.3v3c-44.1 30-73 80.5-73 137.8 0 11.9 1.2 23.4 3.6 34.6-14.3 11-23.6 28.2-23.6 47.7V539c0 232 188 420 420 420H540c232 0 420-188 420-420v-29.9c0.2-18-7.8-34.2-20.3-45.1zM190.8 338.7c16.9-11.5 26.8-30.7 26.3-51.1v-1.5c0-33.7 27.4-61.2 61.1-61.3h1.7c20.5 0 39.6-10.5 50.6-27.8 14.2-22.3 33.9-40.9 56.9-53.9 23.7-13.3 50.7-20.3 78.1-20.3 32.1 0 63.1 9.5 89.5 27.4 10 6.8 21.8 10.3 33.7 10.3 5.9 0 11.7-0.9 17.5-2.6 5.8-1.8 11.8-2.6 17.9-2.6 11.8 0 23.1 3.3 33 9.6 9.6 6.2 17.3 14.8 22.3 25.1 10.1 20.9 31.3 33.9 54 33.9 3.1 0 6.2-0.2 9.3-0.7 4.1-0.6 8.2-1 12.3-1 43.2 0 78.4 35.2 78.4 78.4 0 10.7-2.1 21-6.2 30.7-10.7 25-3.2 54.1 18.3 70.9 15.6 12.2 26.5 28.6 31.6 47H146.3c-1.5-7.2-2.3-14.6-2.3-22.3 0-35.4 17.5-68.3 46.8-88.2z m603.9 454.9c-33.1 33.1-71.6 59-114.4 77.2-44.3 18.8-91.5 28.3-140.1 28.3H484c-18.7 0-37.2-1.4-55.4-4.2 2.8-2.7 4.5-6.5 4.5-10.7 0-8.3-6.7-15-15-15h-78c-13.5-5.9-26.6-12.6-39.1-20h38.9c8.3 0 15-6.7 15-15s-6.7-15-15-15h-82.1c-9.8-8-19.3-16.5-28.4-25.5-1.5-1.5-2.9-3-4.4-4.5h56.7c8.3 0 15-6.7 15-15s-6.7-15-15-15H199c-7.5-9.7-14.4-19.7-20.9-30h79.4c8.3 0 15-6.7 15-15s-6.7-15-15-15h-96.2c-3.3-6.6-6.3-13.2-9.2-20-1.4-3.3-2.7-6.7-4-10h85.3c8.3 0 15-6.7 15-15s-6.7-15-15-15h-95.5c-3.8-13.1-6.8-26.5-9.1-40h510.6c8.3 0 15-6.7 15-15s-6.7-15-15-15H125.3c-0.8-10-1.3-20-1.3-30.1v-29.9h776.2V539c0 10.6-0.5 21-1.4 31.4l-170.6-1.3h-0.1c-8.2 0-14.9 6.6-15 14.9-0.1 8.3 6.6 15.1 14.9 15.1l167 1.3c-4.6 27-12.3 53.3-23.1 78.7-18.1 42.9-44.1 81.4-77.2 114.5z" fill="#561F00" p-id="10467"></path><path d="M289.3 292.4m-15 0a15 15 0 1 0 30 0 15 15 0 1 0-30 0Z" fill="#561F00" p-id="10468"></path><path d="M395.3 393.4m-15 0a15 15 0 1 0 30 0 15 15 0 1 0-30 0Z" fill="#561F00" p-id="10469"></path><path d="M406.3 247.4m-15 0a15 15 0 1 0 30 0 15 15 0 1 0-30 0Z" fill="#561F00" p-id="10470"></path><path d="M366.3 319.4m-15 0a15 15 0 1 0 30 0 15 15 0 1 0-30 0Z" fill="#561F00" p-id="10471"></path><path d="M288.3 383.4m-15 0a15 15 0 1 0 30 0 15 15 0 1 0-30 0Z" fill="#561F00" p-id="10472"></path></svg>